<mxfile host="app.diagrams.net" modified="2023-06-26T02:27:23.663Z" agent="Mozilla/5.0 (X11; Linux x86_64) AppleWebKit/537.36 (KHTML, like Gecko) Chrome/112.0.0.0 Safari/537.36" version="21.4.0" etag="bo89EgEErkiNlR-Ms2A7" type="github">
  <diagram name="第 1 页" id="DZjDnSRTvcOVr3w6_8Mp">
    <mxGraphModel>
      <root>
        <mxCell id="0" />
        <mxCell id="1" parent="0" />
      </root>
    </mxGraphModel>
  </diagram>
</mxfile>
